<svg xmlns="http://www.w3.org/2000/svg" width="345.54" height="32.48"><defs><style>.b{fill:#0c1a6f}.d{fill:#fff}</style></defs><path d="M53.76 403.25s7.92-.92 11.45-10.13c2.13-5.57 1.72-17.53 1.72-17.53H40.58s-.4 11.96 1.73 17.53c3.52 9.21 11.45 10.13 11.45 10.13Z" style="fill:#ccc" transform="translate(-33.88 -375.28)"/><path class="b" d="M19.88 28.3h-.04a13.07 13.07 0 0 1-4.53-1.65 15.44 15.44 0 0 1-3.85-3.12 17.8 17.8 0 0 1-3.33-5.56C7.23 15.62 6.67 11.94 6.45 7 6.28 3.36 6.38.34 6.38.31l.01-.3h26.96l.01.3c0 .03.1 3.05-.06 6.7-.22 4.93-.78 8.61-1.68 10.96a17.8 17.8 0 0 1-3.33 5.56 15.44 15.44 0 0 1-3.85 3.12 13.07 13.07 0 0 1-4.53 1.65ZM7 .64c-.04 1.9-.18 12.14 1.71 17.1a17.18 17.18 0 0 0 3.22 5.37 14.8 14.8 0 0 0 3.69 2.98 12.83 12.83 0 0 0 4.25 1.57 12.91 12.91 0 0 0 4.27-1.58 14.81 14.81 0 0 0 3.68-2.99 17.18 17.18 0 0 0 3.2-5.35c1.9-4.96 1.75-15.2 1.7-17.1Z"/><path d="m44.46 397.05 21.88-9.02a73.46 73.46 0 0 0 .57-8.57l-25.46 10.4s.77 4.58 3 7.19Z" style="fill:#ffcc01" transform="translate(-33.88 -375.28)"/><path class="b" d="m10.49 22.15-.15-.17c-2.26-2.64-3.04-7.16-3.07-7.35l-.05-.25L33.34 3.72v.47a72.45 72.45 0 0 1-.58 8.62l-.03.17Zm-2.57-7.38a17.15 17.15 0 0 0 2.75 6.63l21.5-8.86a70.05 70.05 0 0 0 .53-7.89ZM8.48 2.3a2.67 2.67 0 0 1 2.5 2.17v3.92s-.04 1.27.13 1.32a5.23 5.23 0 0 1-1.77-1.16A2.05 2.05 0 0 1 8.7 6.8c-.09-1.95.1-3.65-.22-4.5ZM12.76 11.72a2.34 2.34 0 0 0 1.32-1.57v-6.3a2.15 2.15 0 0 0-1.32-1.75 2.15 2.15 0 0 0-1.31 1.74v6.31a2.3 2.3 0 0 0 1.31 1.57ZM17.05 2.3a2.67 2.67 0 0 0-2.51 2.17v3.92s.04 1.27-.13 1.32a5.2 5.2 0 0 0 1.77-1.16 2.06 2.06 0 0 0 .64-1.75c.1-1.95-.1-3.65.23-4.5Z"/><path class="b" d="M11.9 19.25a.91.91 0 0 0 .06-.53l-1.17-2.84a3.99 3.99 0 0 0-.82.35 2.17 2.17 0 0 0-.37.42l-.06-.77 1.45-.6 1.67-.69.1.83a.7.7 0 0 0-.54-.14 7.31 7.31 0 0 0-.7.3l1.17 2.84a.92.92 0 0 0 .4.33ZM29.97 11.83a.92.92 0 0 0 .06-.52l-1.17-2.85a3.96 3.96 0 0 0-.82.36 2.25 2.25 0 0 0-.37.42l-.06-.77 1.45-.6 1.68-.7.08.84a.7.7 0 0 0-.53-.14c-.45.17-.7.29-.7.29L30.76 11a.92.92 0 0 0 .4.33ZM17.04 17.07a2.4 2.4 0 0 1-.5-.02 6.97 6.97 0 0 1-2.21-1.1c.55-.28.95-.64.7-1.2a.58.58 0 0 0-.68-.33 7 7 0 0 0-.6.24l1.17 2.84a.9.9 0 0 0 .41.34l-1.2.49a.91.91 0 0 0 .06-.52l-1.26-3.07a.35.35 0 0 0-.23-.16l1.54-.63s1.12-.45 1.5.47c0 0 .45.73-.64 1.33a14.86 14.86 0 0 0 2.68 1.08 3.13 3.13 0 0 1-.74.24Z"/><path class="b" d="m17.73 14.4-.5-1.23a.92.92 0 0 1 .06-.53l-1.1.46a.91.91 0 0 1 .4.33l.6 1.45.6 1.46a.92.92 0 0 1-.06.52l1.11-.46a.9.9 0 0 1-.4-.33l-.5-1.23ZM19 16.33a.92.92 0 0 0 .06-.52l-.6-1.45-.6-1.46a.9.9 0 0 0-.4-.33l1.86-.76s2.03-.67 2.76 1.1-1.21 2.65-1.21 2.65Zm.64-4.08a6.86 6.86 0 0 0-1.03.42l.6 1.45.55 1.34a6.71 6.71 0 0 0 1-.41 1.67 1.67 0 0 0 .63-1.75l-.12-.29a1.58 1.58 0 0 0-1.66-.75"/><path class="b" d="M25.23 12.85c-.16.56-1.09.86-1.15.89-.49.21-.58.08-.58.08l-.53-1.3.53-.2a.62.62 0 0 1 .51.01l-.26-.64-.96.4-.4-.98.95-.39a.86.86 0 0 1 .51.1l-.3-.74-2.35.96a.9.9 0 0 1 .41.34l.6 1.45.6 1.45a.9.9 0 0 1-.06.52l1.1-.45 1.45-.6Z"/><path class="b" d="M28.14 12.38a.9.9 0 0 0 .66-.07l-.86-2.1-.5-1.23a.7.7 0 0 1 .06-.52l-1.03.42a1.02 1.02 0 0 1 .39.34l.6 1.46.27.66-3.04-1.73-.78.33a.9.9 0 0 1 .4.33l.6 1.45.6 1.45a.9.9 0 0 1-.05.52l1.06-.43a.9.9 0 0 1-.41-.33l-.5-1.23-.19-.45-.2-.48 2.48 1.42a2.78 2.78 0 0 0 .44.19ZM0 21.18a19.13 19.13 0 0 0 6.01 5.71l2.58-3.82a14.92 14.92 0 0 1-5.31-5.52l-.3 3.48Z"/><path class="b" d="M20 32.48c-2.91 0-11.9-.47-15.73-5.54l2.63-3.67c3.73 4.47 13.07 4.81 13.07 4.81s9.33-.34 13.06-4.82l2.63 3.68C32.33 31.5 22.9 32.48 20 32.48Z"/><path class="b" d="M39.93 21.18a19.14 19.14 0 0 1-6 5.7l-2.59-3.82a14.9 14.9 0 0 0 5.31-5.5l.3 3.47Z"/><path class="d" d="m8.9 27.17-.1-.05a.78.78 0 0 0-.27-.95.36.36 0 0 0-.52.11c-.3.5.77 1.24.36 1.92a.74.74 0 0 1-1.06.19c-.25-.15-.35-.36-.45-.42a.12.12 0 0 0-.17.05l-.07-.05.32-.77.07.05a.92.92 0 0 0 .34 1 .44.44 0 0 0 .62-.13c.11-.2.13-.34-.2-.92-.2-.36-.32-.64-.12-.97a.66.66 0 0 1 .94-.2c.2.11.32.34.4.38a.13.13 0 0 0 .19-.04l.07.04ZM10.22 29.04a.92.92 0 0 1-1.01.28.75.75 0 0 1-.34-1.08.85.85 0 0 1 1.1-.58.66.66 0 0 1 .36.92L9.2 28.1c-.22.66.01.93.25 1.02a.7.7 0 0 0 .71-.14Zm-.2-.73c.04-.18.1-.44-.18-.56-.2-.08-.38-.04-.57.25ZM11.85 29.55a.92.92 0 0 1-.98.38.75.75 0 0 1-.44-1.05.84.84 0 0 1 1.05-.68.66.66 0 0 1 .44.89l-1.15-.37c-.17.68.09.92.33 1a.71.71 0 0 0 .7-.2Zm-.27-.7c.03-.19.07-.45-.23-.54-.2-.06-.38 0-.54.3ZM11.79 30.11c.26.02.3.02.34-.19l.42-1.82c.04-.17.03-.24-.12-.28a.75.75 0 0 0-.11-.01l.01-.07c.2 0 .41 0 .63-.03l.01.01-.36 1.58v.01l.62-.33c.07-.04.11-.08.12-.11s-.01-.08-.17-.12v-.05l.78.17-.01.06c-.2-.05-.3-.07-.93.3l-.13.07.4.87c.15.28.29.35.39.38l-.01.05-.83-.19.01-.05.07.01c.03.01.09.01.1-.04l-.05-.14-.37-.82-.16.68c-.04.16.04.21.16.25l.08.02-.02.05-.89-.2ZM16.66 29.38l-.47-.06-.14 1.22c-.03.23-.04.34.32.38v.06l-1.01-.12v-.05c.26.01.33-.01.36-.3l.14-1.22-.31-.04.01-.12.32.04c.02-.22.1-.9.8-.82.22.02.37.15.36.28a.16.16 0 0 1-.19.14c-.16-.02-.14-.31-.33-.33-.2-.03-.25.17-.27.32l-.05.45.48.05Z"/><path class="d" d="M18.37 30.25a.9.9 0 0 1-.93.86.86.86 0 0 1-.78-.98.85.85 0 0 1 .9-.85.84.84 0 0 1 .81.97Zm-.36.09c.04-.48-.13-.92-.49-.95-.24-.01-.47.17-.5.58-.01.28.02 1 .49 1.04.2.01.47-.12.51-.67Z"/><path class="d" d="M18.67 29.84c0-.23-.07-.24-.13-.24a.49.49 0 0 0-.14.01v-.06c.2-.06.4-.12.59-.2l.01.01v.35c.2-.27.33-.35.48-.34a.2.2 0 0 1 .2.21.15.15 0 0 1-.15.17c-.14 0-.17-.14-.27-.14s-.27.19-.27.31l-.02.88c0 .26.12.28.32.3v.06l-.93-.03v-.06c.21-.03.28-.04.28-.26ZM23.1 30.92l-1.13.12v-.07c.34-.06.35-.15.31-.43l-.21-1.94-.2.02c-.44.05-.53.14-.57.57l-.1.01-.04-.66 2.18-.24.1.65-.1.01c-.12-.41-.24-.47-.66-.42l-.21.02.22 1.98c.02.26.08.33.4.3Z"/><path class="d" d="m25.55 30.52-.82.14v-.06c.18-.05.25-.08.2-.37l-.13-.76c-.05-.26-.15-.4-.37-.36a.59.59 0 0 0-.37.31l.16.93c.04.3.12.3.31.29l.01.06-.82.14-.02-.06c.2-.06.24-.1.2-.37l-.32-1.81c-.02-.12-.03-.2-.2-.17a.42.42 0 0 0-.07.02l-.01-.07.52-.26.02.01.2 1.16a.68.68 0 0 1 .5-.4c.48-.09.56.36.58.52l.13.76c.05.28.1.3.3.3ZM26.98 28.46c-.04.02-.12.05-.14.21l-.22 1.69c-.08.55-.19.84-.47.9a.25.25 0 0 1-.33-.15.17.17 0 0 1 .14-.21 1.72 1.72 0 0 1 .29 0c.2-.04.22-.6.21-.66a5.16 5.16 0 0 0-.36-.47l-.64-.83a.26.26 0 0 0-.23-.08v-.05l.77-.18.02.05c-.09.03-.22.06-.2.16a.42.42 0 0 0 .07.13l.66.86.1-.9a1.71 1.71 0 0 0 .03-.29c-.02-.07-.09-.1-.2-.06l-.02-.06.51-.12ZM28.2 28.59c-.2-.36-.39-.39-.55-.34a.27.27 0 0 0-.21.33.3.3 0 0 0 .24.22l.47.11c.22.06.38.13.44.35a.53.53 0 0 1-.4.65c-.16.05-.34.02-.45.06-.04.01-.05.03-.07.07h-.05l-.17-.57.06-.02c.1.18.27.49.64.38a.28.28 0 0 0 .22-.36.33.33 0 0 0-.28-.22l-.25-.06c-.27-.06-.52-.14-.6-.42a.5.5 0 0 1 .4-.6 1.61 1.61 0 0 1 .35-.03.09.09 0 0 0 .06-.06l.04-.01.16.5ZM30.2 28.52a.91.91 0 0 1-.55.9c-.4.16-.8-.04-.99-.56a.85.85 0 0 1 .41-1.17.66.66 0 0 1 .9.43l-1.14.42c.28.63.63.67.87.58a.7.7 0 0 0 .43-.6Zm-.65-.38c-.1-.17-.22-.4-.5-.3-.2.08-.32.23-.25.57ZM30.52 28.98c.2-.1.25-.18.16-.38l-.78-1.69c-.07-.16-.12-.2-.26-.14a1.3 1.3 0 0 0-.11.06l-.03-.06.5-.4H30l.97 2.1c.1.21.16.21.38.13l.02.05-.84.38ZM31.74 26.6l-.42.24.6 1.06c.11.21.16.3.48.13l.03.05-.88.5-.03-.06c.22-.13.26-.2.11-.45l-.6-1.07-.28.15-.06-.1.28-.16c-.1-.2-.44-.8.17-1.14.2-.1.4-.1.46.02a.16.16 0 0 1-.07.23c-.14.08-.3-.17-.46-.08-.19.1-.1.29-.04.42l.23.4.41-.24ZM4.31 27.07l-.28-.2L6.83 23l2.04-.13.03.35-1.88.12Z"/><path class="d" d="M7.99 24.4c-1.16-.95-1.16-1.13-1.16-1.2h.35a.1.1 0 0 0-.01-.04 7.02 7.02 0 0 0 1.04.97ZM35.6 27l-2.7-3.73-1.88-.12.02-.35 2.04.13 2.8 3.87Z"/><path class="d" d="m31.93 24.33-.22-.27a6.97 6.97 0 0 0 1.04-.97.1.1 0 0 0 0 .04h.34c0 .07 0 .25-1.16 1.2Z"/><path d="M51.35 2a9.61 9.61 0 0 0-.7-1.22L52.4.33A7.36 7.36 0 0 1 53.27 2h1.41a9.14 9.14 0 0 0-.65-1.36l1.76-.4A9.5 9.5 0 0 1 56.54 2h1.05a9.59 9.59 0 0 0 .69-1.72l1.86.4A9.38 9.38 0 0 1 59.48 2h1.1v2.85h-1.46v.62a13.22 13.22 0 0 1-2.39 1.39h4.13v1.56H56.3v1.65a1.08 1.08 0 0 1-1.12 1.2H52.7l-.29-1.68h1.67c.3 0 .41-.04.41-.44v-.73h-4.6V6.85h4.6v-.57h.45A3.27 3.27 0 0 0 56 5.67h-4.37v-.82h-1.48V2Zm7.51 1.51H51.9v.64h6.98ZM61.26 6.88a6.4 6.4 0 0 0 1.31-3.07h-1.13V2.23h1.32V.32h1.57v1.91h1.02v1.58h-1.02v.72a9.82 9.82 0 0 0 1.5 1.91l-.74 1.57a6.9 6.9 0 0 1-.76-1.21v4.44h-1.57V6.91a9.66 9.66 0 0 1-1.02 2.26Zm3.5 2.74a8.08 8.08 0 0 0 2.79-1.2 10.53 10.53 0 0 1-1.32-2.67c-.07.03-.1.07-.23.15l-.97-1.34A6.66 6.66 0 0 0 67 2.8h-1.6V1.24h2.59V.32h1.72v.92h2.65V2.8h-5.32l1.33.83a8.71 8.71 0 0 1-2.07 2.07l1.45-.56A8.27 8.27 0 0 0 68.8 7.2a6.46 6.46 0 0 0 .98-2.1l1.53.58a9.63 9.63 0 0 1-2.04-2.08c.48-.27 1.06-.62 1.43-.8a8.93 8.93 0 0 0 1.87 1.65l-.86 1.5a3.26 3.26 0 0 1-.34-.23 7.9 7.9 0 0 1-1.42 2.67 8.4 8.4 0 0 0 2.63 1.17l-.83 1.67a9 9 0 0 1-3.05-1.58 8.22 8.22 0 0 1-3.08 1.58ZM76.23 7.27a18.22 18.22 0 0 1-2.32 3.95l-1.1-1.6a18.06 18.06 0 0 0 2.08-3.34ZM73.75 3.2a8.4 8.4 0 0 1 2.03 1.2l-1 1.45a8.53 8.53 0 0 0-1.93-1.26Zm.33-2.9a9.64 9.64 0 0 1 2.07 1.12L75.1 2.86a9.44 9.44 0 0 0-1.97-1.24Zm5.74 6.14c-.35.96-.72 1.9-1.15 2.81.18 0 2.25-.13 2.56-.16a11.5 11.5 0 0 0-.93-1.53l1.45-.74a15.58 15.58 0 0 1 2.17 3.8l-1.62.77c-.1-.23-.13-.34-.34-.8-1.54.2-4.38.39-5.96.45l-.21-1.68 1-.03a17.84 17.84 0 0 0 1.1-2.89h-1.86V4.82h3.06V3.34h-2.62V1.71h2.62V.34h1.75v1.37h2.64v1.63h-2.64v1.48h3.04v1.62ZM89.07.34h1.87v1.78A10.5 10.5 0 0 0 92 6.33a7.43 7.43 0 0 0 3.63 3.25l-1.16 1.67a9.22 9.22 0 0 1-4.46-5.41 9.31 9.31 0 0 1-4.5 5.4l-1.17-1.63a7.27 7.27 0 0 0 3.79-3.5 9.4 9.4 0 0 0 .94-3.99ZM103.09 7.18a16.95 16.95 0 0 1-2.25 4.01l-1.1-1.56a11.5 11.5 0 0 0 2.03-3.42Zm-2.37-4.03a8.9 8.9 0 0 1 1.97 1.24l-1 1.45a6.22 6.22 0 0 0-1.89-1.28Zm.34-2.88a9.46 9.46 0 0 1 1.97 1.04l-.97 1.55a8.02 8.02 0 0 0-1.94-1.25Zm7.45 2.05h-5.44V.66h7.79v1.66h-.68v7.42c0 .57 0 1.49-1.22 1.49h-2.34l-.3-1.74h1.86c.33 0 .33-.22.33-.36Zm-.75.78v5.6h-4.42V3.1Zm-2.85 1.54v2.5h1.31v-2.5ZM113.98 4.08a13.45 13.45 0 0 1-1.83.94l-.84-1.77A9.97 9.97 0 0 0 116 .29h1.89a11.17 11.17 0 0 0 4.7 2.96l-.9 1.77a17.12 17.12 0 0 1-1.78-.92v.93h-5.93Zm-1.53 1.71h8.96v5.46h-1.8v-.38h-5.36v.38h-1.8Zm1.8 1.6V9.3h5.35V7.4Zm4.67-3.94a12.32 12.32 0 0 1-2-1.79 8.93 8.93 0 0 1-1.98 1.8ZM131.25 6.8a6.37 6.37 0 0 0-.79-.65 5.54 5.54 0 0 1-1.1 1.7v.34h3.88v1.15h-3.88v.4h4.56v1.3H123v-1.3h4.6v-.4h-3.88V8.2h.56l-.26-.81h.82c.22 0 .22-.03.22-.36-.29.01-1.69.1-2 .1l-.02-1.17c.5 0 1.03 0 2.01-.05v-.36h.23a7.68 7.68 0 0 0 .9-.32h-2.95V4.3h5.19v.46l.58-1.2a4.95 4.95 0 0 1 .64.28c.01-.15.05-.35.08-.84h-.8V1.35h.89L129.8.3h1.57l-.03 1.06h1.92a46 46 0 0 0-.14 3.15c0 .58.03 1.12.03 1.24s.06.22.14.22c.15 0 .38-.63.48-.9l.36 1.64c-.34.8-.81 1.4-1.28 1.4-.94 0-1.03-.77-1.18-2.03Zm-8.2-6.06h2V.3h1.68v.45h2v1.12h-5.67Zm.4 1.43h4.92v1.78h-4.91Zm1.52.67v.43h1.88v-.43Zm2.86 4.27a2.36 2.36 0 0 0 .33-.28c-.24.03-1.31.08-1.52.1v.72c0 .37-.1.46-.15.53h1.1v-.44h1.27Zm.59-2.04a11.25 11.25 0 0 1-1.78.74v.02c.97-.06 1.3-.1 1.9-.14v.76a4.32 4.32 0 0 0 .67-1.1c-.34-.21-.56-.33-.8-.44Zm2.7-2.06a14.4 14.4 0 0 1-.19 1.59l.66.43c-.02-.56-.01-1.42 0-2.02ZM136 2a9.62 9.62 0 0 0-.7-1.22l1.74-.45a7.36 7.36 0 0 1 .88 1.67h1.4a9.14 9.14 0 0 0-.65-1.36l1.76-.4a9.42 9.42 0 0 1 .75 1.76h1.05a9.59 9.59 0 0 0 .69-1.72l1.86.4a9.17 9.17 0 0 1-.66 1.32h1.1v2.85h-1.47v.62a13.22 13.22 0 0 1-2.38 1.39h4.13v1.56h-4.56v1.65a1.08 1.08 0 0 1-1.12 1.2h-2.49l-.29-1.68h1.66c.31 0 .42-.04.42-.44v-.73h-4.6V6.85h4.6v-.57h.45a3.27 3.27 0 0 0 1.07-.61h-4.37v-.82h-1.48V2Zm7.5 1.51h-6.97v.64h6.98ZM156.7 11.25h-1.65v-.38h-7v.38h-1.64V.6h10.29Zm-2.4-1.76h.75v-7.5h-2.67v.45h2.15v.87h-2.15v.4h2.48v.95h-6.62V3.7h2.48v-.4h-2.09v-.87h2.09v-.45h-2.67v7.5h2.55V8.3a8 8 0 0 1-1.82.95L148.13 8a7.28 7.28 0 0 0 2.18-1.03h-1.68V5.04h5.84v1.9l.37.27a6.21 6.21 0 0 1-.87.88 8.52 8.52 0 0 0 .96.3ZM153 5.75h-3v.5h3Zm-.92 1.24a9.96 9.96 0 0 0 .83.58 5.8 5.8 0 0 0 .6-.6h-1.42Zm.01 2.5h2.02a7.1 7.1 0 0 1-2.02-1.17ZM55.07 13.6v4.58a44.3 44.3 0 0 1 9.25 4.04l-1.63 3.21a37.25 37.25 0 0 0-7.62-4v9.12h-3.35V13.6ZM81.85 18.89c-.62 6.44-3.25 10.87-12.95 11.6l-.93-2.89c7.68-.29 9.5-2.94 10.2-5.89H65.94V18.9Zm-1.27-4.72v2.85H67.36v-2.84ZM94.74 30.32h-3.26v-7.85a32.4 32.4 0 0 1-6.42 2.86l-1.7-2.6a29.06 29.06 0 0 0 14.2-9.35l2.77 1.9a38.99 38.99 0 0 1-5.6 5ZM118.82 19.12v2.86h-6.08l-.02.43a8.9 8.9 0 0 1-2.1 5.58c-1.7 1.7-4.3 2.35-6.2 2.73l-1.29-2.8a10.48 10.48 0 0 0 4.87-1.6c1.38-1.12 1.52-3.5 1.54-3.9l.02-.43h-7.07v-2.87Zm-4-4.85a17.9 17.9 0 0 1 .4 2.21l1-.11v.67h-12.43v-2.77Zm.98 1.65a13.97 13.97 0 0 0-.62-2.86l1.56-.21a13.35 13.35 0 0 1 .73 2.8Zm2.48-.03a15.7 15.7 0 0 0-.73-2.95l1.58-.21a13.38 13.38 0 0 1 .79 2.9ZM127.46 20.12a25.34 25.34 0 0 0-6.06-2.98l1.38-2.62a25.44 25.44 0 0 1 6.31 2.77Zm-5.8 6.87c7.5-.6 11.44-3.45 13.63-11.2l2.9 1.44c-2.98 10.05-8.93 12.12-15.5 13.07ZM144.12 13.6v4.58a44.33 44.33 0 0 1 9.26 4.04l-1.64 3.21a37.27 37.27 0 0 0-7.62-4v9.12h-3.35V13.6ZM176.53 15.08v14.18h-14.56v-3.02h11.31v-8.16h-11.12v-3ZM185.86 20.12a25.34 25.34 0 0 0-6.06-2.98l1.39-2.62a25.4 25.4 0 0 1 6.3 2.77Zm-5.79 6.87c7.49-.6 11.43-3.45 13.62-11.2l2.9 1.44c-2.98 10.05-8.92 12.12-15.5 13.07ZM202.22 14.23v5.27a35.1 35.1 0 0 0 8.33-3.17l2.14 2.44a47.57 47.57 0 0 1-10.47 3.75v3.49c0 .7.08.92 1 .92h6.37a18.6 18.6 0 0 0 3.65-.4l.2 3.2a19.92 19.92 0 0 1-3.33.26h-7.28c-1 0-3.79 0-3.79-3.02V14.23Zm13.1.87a2.14 2.14 0 1 1-2.14-2.14 2.13 2.13 0 0 1 2.14 2.14Zm-2.96 0a.82.82 0 0 0 .82.82.84.84 0 1 0-.82-.82ZM227.88 18.04a87.01 87.01 0 0 1-.6 8.91h3.06v2.71h-14.06v-2.71h7.98a48.25 48.25 0 0 0 .46-6.14h-6.98v-2.77ZM249.47 20.46v3.22h-16.98v-3.22ZM258.27 20.2a15.95 15.95 0 0 1 4 2.19 12.1 12.1 0 0 0 1.81-3.93h-5.56a16.84 16.84 0 0 1-5.2 4.54l-1.96-2.23a13.07 13.07 0 0 0 6.52-7.46l3.3.42a13.4 13.4 0 0 1-.82 1.92h7.53c-1.33 8.3-5.66 13.1-13.7 15l-1.64-2.76a15.94 15.94 0 0 0 7.49-3.21 18.57 18.57 0 0 0-3.81-2.4ZM272.9 26.87h-3.62v-2.42h12.1v-.75h-10.74v-6.66h6.26v-.73h-7.62v-2.4h7.62v-.99h2.94v.98h7.64v2.4h-7.64v.74h6.18v6.65h-1.72v.75h3.18v2.43h-3.18v2.65a1.75 1.75 0 0 1-1.84 1.7h-3.95l-.58-2.62h3.03c.36 0 .42-.08.42-.48v-1.25h-6.54a16.3 16.3 0 0 1 2.17 2.48l-2.75 1.62a18.5 18.5 0 0 0-2.83-3.3Zm.55-8.14v.83h3.45v-.83Zm0 2.4v.84h3.45v-.83Zm6.39-2.4v.83h3.35v-.83Zm0 2.4v.84h3.35v-.83ZM289.1 13.5h7.8v8.12h-4.94v9.6h-2.85Zm2.86 3.29h2.2v-.94h-2.2Zm0 2.71h2.2v-.98h-2.2Zm6.2-6h7.96v15.76a1.85 1.85 0 0 1-1.79 1.96h-3.94l-.56-3h2.9c.46 0 .52-.05.52-.6v-6h-5.1Zm5.1 3.3v-.95h-2.39v.94Zm-2.39 1.72v.99h2.39v-.99ZM310.16 15.79a16.16 16.16 0 0 0-1.18-2.04l2.9-.75a12.27 12.27 0 0 1 1.47 2.79h2.35a15.4 15.4 0 0 0-1.08-2.27l2.93-.67a15.68 15.68 0 0 1 1.25 2.94h1.75a16 16 0 0 0 1.15-2.87l3.1.68a15.53 15.53 0 0 1-1.1 2.19h1.85v4.75h-2.45v1.04a22.03 22.03 0 0 1-3.98 2.31h6.89v2.62h-7.6v2.75a1.8 1.8 0 0 1-1.87 1.98h-4.15l-.48-2.79h2.77c.52 0 .69-.06.69-.73V26.5h-7.68v-2.62h7.68v-.97h.75a5.43 5.43 0 0 0 1.79-1.02h-7.29v-1.36h-2.46v-4.76Zm12.52 2.52h-11.64v1.06h11.64ZM326.66 23.92a10.68 10.68 0 0 0 2.2-5.12h-1.9v-2.63h2.2v-3.19h2.62v3.2h1.71v2.63h-1.71v1.2a16.52 16.52 0 0 0 2.52 3.2l-1.25 2.6a11.48 11.48 0 0 1-1.27-2.01v7.4h-2.62V24a16.06 16.06 0 0 1-1.69 3.76Zm5.85 4.58a13.46 13.46 0 0 0 4.64-2.02 17.56 17.56 0 0 1-2.2-4.44c-.11.05-.17.11-.38.25l-1.62-2.23a11.08 11.08 0 0 0 3.27-2.95h-2.67v-2.6h4.3v-1.54h2.88v1.55h4.42v2.6h-8.87l2.21 1.39a14.53 14.53 0 0 1-3.44 3.46l2.4-.94a13.79 13.79 0 0 0 1.77 3.46 10.74 10.74 0 0 0 1.64-3.52l2.56.98A16.1 16.1 0 0 1 340 18.5c.8-.46 1.77-1.04 2.39-1.35a14.95 14.95 0 0 0 3.11 2.76l-1.42 2.5a5.7 5.7 0 0 1-.58-.4 13.14 13.14 0 0 1-2.36 4.47 14.06 14.06 0 0 0 4.38 1.95l-1.38 2.79a14.98 14.98 0 0 1-5.08-2.64 13.7 13.7 0 0 1-5.14 2.64Z"/></svg>